<mxfile host="Electron" agent="Mozilla/5.0 (X11; Linux x86_64) AppleWebKit/537.36 (KHTML, like Gecko) draw.io/27.0.9 Chrome/134.0.6998.205 Electron/35.4.0 Safari/537.36" version="27.0.9">
  <diagram name="Page-1" id="zx3UU9UiRAIM1bWSkmPO">
    <mxGraphModel dx="631" dy="478" grid="1" gridSize="10" guides="1" tooltips="1" connect="1" arrows="1" fold="1" page="1" pageScale="1" pageWidth="850" pageHeight="1100" math="0" shadow="0">
      <root>
        <mxCell id="0" />
        <mxCell id="1" parent="0" />
        <mxCell id="riUfmiOH31hi-z8SwsNI-3" value="" style="edgeStyle=orthogonalEdgeStyle;rounded=0;orthogonalLoop=1;jettySize=auto;html=1;" edge="1" parent="1" source="riUfmiOH31hi-z8SwsNI-1" target="riUfmiOH31hi-z8SwsNI-2">
          <mxGeometry relative="1" as="geometry" />
        </mxCell>
        <mxCell id="riUfmiOH31hi-z8SwsNI-1" value="document" style="rounded=0;whiteSpace=wrap;html=1;" vertex="1" parent="1">
          <mxGeometry x="190" y="60" width="120" height="60" as="geometry" />
        </mxCell>
        <mxCell id="riUfmiOH31hi-z8SwsNI-2" value="document" style="rounded=0;whiteSpace=wrap;html=1;" vertex="1" parent="1">
          <mxGeometry x="190" y="170" width="120" height="60" as="geometry" />
        </mxCell>
        <mxCell id="riUfmiOH31hi-z8SwsNI-4" value="document" style="rounded=0;whiteSpace=wrap;html=1;" vertex="1" parent="1">
          <mxGeometry x="200" y="180" width="120" height="60" as="geometry" />
        </mxCell>
        <mxCell id="riUfmiOH31hi-z8SwsNI-5" value="Chunks" style="rounded=0;whiteSpace=wrap;html=1;" vertex="1" parent="1">
          <mxGeometry x="220" y="190" width="120" height="60" as="geometry" />
        </mxCell>
        <mxCell id="riUfmiOH31hi-z8SwsNI-12" style="edgeStyle=orthogonalEdgeStyle;rounded=0;orthogonalLoop=1;jettySize=auto;html=1;exitX=0.5;exitY=1;exitDx=0;exitDy=0;exitPerimeter=0;" edge="1" parent="1" source="riUfmiOH31hi-z8SwsNI-7" target="riUfmiOH31hi-z8SwsNI-11">
          <mxGeometry relative="1" as="geometry" />
        </mxCell>
        <mxCell id="riUfmiOH31hi-z8SwsNI-7" value="BM25" style="shape=cylinder3;whiteSpace=wrap;html=1;boundedLbl=1;backgroundOutline=1;size=15;" vertex="1" parent="1">
          <mxGeometry x="100" y="240" width="60" height="80" as="geometry" />
        </mxCell>
        <mxCell id="riUfmiOH31hi-z8SwsNI-13" style="edgeStyle=orthogonalEdgeStyle;rounded=0;orthogonalLoop=1;jettySize=auto;html=1;exitX=0.5;exitY=1;exitDx=0;exitDy=0;exitPerimeter=0;" edge="1" parent="1" source="riUfmiOH31hi-z8SwsNI-8" target="riUfmiOH31hi-z8SwsNI-11">
          <mxGeometry relative="1" as="geometry" />
        </mxCell>
        <mxCell id="riUfmiOH31hi-z8SwsNI-8" value="Embedding based" style="shape=cylinder3;whiteSpace=wrap;html=1;boundedLbl=1;backgroundOutline=1;size=15;" vertex="1" parent="1">
          <mxGeometry x="360" y="240" width="60" height="80" as="geometry" />
        </mxCell>
        <mxCell id="riUfmiOH31hi-z8SwsNI-9" style="edgeStyle=orthogonalEdgeStyle;rounded=0;orthogonalLoop=1;jettySize=auto;html=1;entryX=0.5;entryY=0;entryDx=0;entryDy=0;entryPerimeter=0;" edge="1" parent="1" source="riUfmiOH31hi-z8SwsNI-5" target="riUfmiOH31hi-z8SwsNI-7">
          <mxGeometry relative="1" as="geometry" />
        </mxCell>
        <mxCell id="riUfmiOH31hi-z8SwsNI-10" style="edgeStyle=orthogonalEdgeStyle;rounded=0;orthogonalLoop=1;jettySize=auto;html=1;exitX=1;exitY=0.5;exitDx=0;exitDy=0;entryX=0.5;entryY=0;entryDx=0;entryDy=0;entryPerimeter=0;" edge="1" parent="1" source="riUfmiOH31hi-z8SwsNI-5" target="riUfmiOH31hi-z8SwsNI-8">
          <mxGeometry relative="1" as="geometry" />
        </mxCell>
        <mxCell id="riUfmiOH31hi-z8SwsNI-14" style="edgeStyle=orthogonalEdgeStyle;rounded=0;orthogonalLoop=1;jettySize=auto;html=1;exitX=0.5;exitY=1;exitDx=0;exitDy=0;" edge="1" parent="1" source="riUfmiOH31hi-z8SwsNI-11" target="riUfmiOH31hi-z8SwsNI-15">
          <mxGeometry relative="1" as="geometry">
            <mxPoint x="260" y="460" as="targetPoint" />
          </mxGeometry>
        </mxCell>
        <mxCell id="riUfmiOH31hi-z8SwsNI-11" value="ensemble" style="rhombus;whiteSpace=wrap;html=1;" vertex="1" parent="1">
          <mxGeometry x="220" y="360" width="80" height="80" as="geometry" />
        </mxCell>
        <mxCell id="riUfmiOH31hi-z8SwsNI-15" value="LLM based&amp;nbsp;&lt;div&gt;extraction&lt;/div&gt;" style="shape=parallelogram;perimeter=parallelogramPerimeter;whiteSpace=wrap;html=1;fixedSize=1;" vertex="1" parent="1">
          <mxGeometry x="200" y="460" width="120" height="60" as="geometry" />
        </mxCell>
        <mxCell id="riUfmiOH31hi-z8SwsNI-16" value="extract only the relevant&amp;nbsp;&lt;div&gt;parts of this chunk&lt;/div&gt;" style="text;html=1;align=center;verticalAlign=middle;resizable=0;points=[];autosize=1;strokeColor=none;fillColor=none;" vertex="1" parent="1">
          <mxGeometry x="320" y="470" width="150" height="40" as="geometry" />
        </mxCell>
      </root>
    </mxGraphModel>
  </diagram>
</mxfile>
